<svg width="20" height="18" viewBox="0 0 20 18" fill="none" xmlns="http://www.w3.org/2000/svg">
<path d="M13.8227 0.892532C13.4076 0.886282 13.0238 1.02753 12.6844 1.41023L12.6768 1.4187L10.7008 3.37566L10.7254 3.40312C10.7572 3.43738 10.782 3.47767 10.7981 3.52162C10.8142 3.56557 10.8214 3.61229 10.8192 3.65905C10.817 3.70581 10.8055 3.75167 10.7854 3.79393C10.7653 3.83619 10.7369 3.87401 10.702 3.90516C10.667 3.93631 10.6262 3.96018 10.5819 3.97535C10.5377 3.99052 10.4908 3.9967 10.4441 3.99353C10.3974 3.99035 10.3518 3.97788 10.31 3.95685C10.2681 3.93582 10.2309 3.90665 10.2005 3.87105L9.96676 3.60886C9.936 3.65208 9.90282 3.69353 9.86738 3.733C9.66754 3.95488 9.40856 4.10206 9.13738 4.16359L9.3498 4.95663C9.44902 5.30741 9.01457 5.55886 8.75988 5.29796L7.15051 6.89183C7.20591 6.88845 7.26141 6.88669 7.31691 6.88656C8.90402 6.88656 10.1925 8.19968 10.1925 9.80343C10.1925 9.8348 10.1911 9.86585 10.1902 9.89699L15.7347 3.89152C16.0571 3.48855 16.1131 3.07558 16.0076 2.64808C15.9016 2.2187 15.6094 1.78472 15.2208 1.4596C15.1009 1.35922 14.9723 1.26963 14.8366 1.19187L10.1 6.13765C9.96648 6.28159 9.7409 6.28827 9.59906 6.15249C9.45726 6.01663 9.45414 5.79097 9.59223 5.65132L14.1208 0.922805C14.0499 0.909467 13.9782 0.900414 13.9062 0.895696C13.8784 0.894034 13.8506 0.892992 13.8227 0.892571L13.8227 0.892532ZM9.07461 2.34359C8.90961 2.34171 8.72789 2.41554 8.58309 2.5764C8.33594 2.85077 8.35191 3.2057 8.54742 3.38187C8.74297 3.55796 9.09773 3.53687 9.34488 3.26245C9.59195 2.98808 9.57602 2.63308 9.38043 2.45698C9.30711 2.39097 9.21137 2.35261 9.1073 2.34499C9.09647 2.34421 9.08557 2.34372 9.07461 2.34359ZM7.98281 4.84124C7.70195 4.83656 7.45039 4.92804 7.21809 5.18988L7.21066 5.19835L3.3148 9.05656C3.7402 9.07726 4.13383 9.22148 4.4627 9.4537C4.51604 9.00269 4.67365 8.57029 4.92305 8.19073L4.94023 8.16456L5.18984 7.84386C5.26482 7.76058 5.3445 7.68168 5.42852 7.60753L8.19832 4.86441C8.14584 4.85395 8.09273 4.84698 8.03934 4.84355C8.02038 4.84235 8.00152 4.84161 7.98277 4.84132L7.98281 4.84124ZM15.5336 5.40433C15.4474 5.40492 15.3614 5.41171 15.2762 5.42464L9.59937 11.5734C9.48362 11.7265 9.3531 11.8679 9.20969 11.9955L8.98645 12.2373C9.36764 12.3208 9.72986 12.4748 10.0544 12.6915C10.0543 12.6816 10.0536 12.6718 10.0536 12.6618C10.0536 12.1782 10.2312 11.7339 10.5236 11.3925L10.5202 11.3891L10.5732 11.3366C10.6125 11.294 10.6537 11.2532 10.6966 11.2143L14.8832 7.06812C15.216 6.70238 15.6666 6.54804 16.087 6.57351C16.513 6.59929 16.9109 6.78534 17.2327 7.0546C17.5545 7.32382 17.8062 7.68097 17.9076 8.09124C17.9387 8.21801 17.9528 8.34833 17.9497 8.47882C18.1302 8.11077 18.1411 7.73292 18.0373 7.34921C17.9012 6.84648 17.5445 6.34632 17.0814 5.98331V5.98339C16.6441 5.64081 16.1182 5.42425 15.6255 5.40566C15.5947 5.40456 15.5641 5.40412 15.5336 5.40433ZM15.9995 7.27355C15.7763 7.26941 15.5816 7.33956 15.3954 7.54949L15.3879 7.55792L12.182 10.7329C13.0522 10.8312 13.7473 11.5251 13.8664 12.3964L17.0816 8.91386C17.2556 8.69589 17.2818 8.4907 17.2248 8.25988C17.1675 8.02765 17.0031 7.77941 16.7814 7.59386C16.5596 7.40831 16.2866 7.29003 16.0445 7.27538C16.0293 7.27445 16.0143 7.27383 15.9995 7.27355ZM7.31687 7.58984C7.12555 7.58984 6.94016 7.61511 6.76348 7.6621C6.84108 7.65155 6.9193 7.6462 6.99762 7.64609C7.96305 7.64609 8.75805 8.42695 8.75805 9.38695C8.75805 10.3469 7.96293 11.1278 6.99758 11.1278C6.03203 11.1278 5.23703 10.3469 5.23703 9.38695C5.23703 9.2764 5.24805 9.16847 5.26816 9.06363C5.18605 9.30164 5.14425 9.55169 5.14449 9.80347C5.14449 11.0332 6.11609 12.0171 7.31687 12.0171C8.51766 12.0171 9.48914 11.0333 9.48914 9.80347C9.48914 8.5737 8.51766 7.58984 7.31687 7.58984ZM6.99762 8.34921C6.40699 8.34921 5.9402 8.81238 5.9402 9.38695C5.9402 9.96156 6.4068 10.4247 6.99762 10.4247C7.58813 10.4247 8.05492 9.96152 8.05492 9.38695C8.05492 8.81234 7.58836 8.34921 6.99758 8.34921H6.99762ZM6.86527 8.63659C7.20676 8.63659 7.49117 8.92081 7.49117 9.26237C7.49117 9.60394 7.2066 9.88816 6.86527 9.88816C6.52379 9.88816 6.2393 9.60398 6.2393 9.26237C6.2393 8.92085 6.52395 8.63659 6.86527 8.63659ZM3.20863 9.75691C2.37855 9.75691 1.70758 10.4352 1.70758 11.2882C1.70758 12.1411 2.37855 12.8194 3.20859 12.8194C4.03863 12.8194 4.70961 12.1411 4.70961 11.2882C4.70961 11.1706 4.69641 11.0564 4.67223 10.9468C4.62488 10.8343 4.58469 10.719 4.55191 10.6015C4.30594 10.0985 3.79746 9.75687 3.20855 9.75687L3.20863 9.75691ZM3.19457 10.1872C3.80355 10.1872 4.25258 10.738 4.25258 11.3522C4.25258 11.9664 3.80344 12.517 3.19453 12.517C2.58555 12.517 2.13645 11.9663 2.13645 11.3522C2.13645 10.7378 2.58566 10.1872 3.19457 10.1872V10.1872ZM17.7485 10.1999C17.4787 10.1953 17.238 10.2826 17.0145 10.5346L17.007 10.5432L13.2435 14.2703C14.3093 14.3339 15.1673 15.1912 15.257 16.2596L19.032 12.1709C19.2423 11.9078 19.2758 11.652 19.207 11.3732C19.1976 11.3356 19.1863 11.2985 19.1731 11.2621L16.6972 13.8536C16.564 13.9982 16.338 14.0055 16.1958 13.8696C16.0536 13.7337 16.0505 13.5076 16.1889 13.3679L18.732 10.706C18.7455 10.6915 18.7602 10.6782 18.7759 10.6662C18.745 10.6364 18.7132 10.6077 18.6803 10.5802C18.418 10.3607 18.0948 10.2198 17.8028 10.2021C17.7846 10.201 17.7665 10.2003 17.7485 10.2L17.7485 10.1999ZM3.18207 10.7753C2.88559 10.7753 2.64535 11.0505 2.64535 11.3901C2.64535 11.7295 2.88559 12.0048 3.18207 12.0048C3.47855 12.0048 3.71891 11.7296 3.71891 11.3901C3.71891 11.0506 3.47859 10.7753 3.18211 10.7753L3.18207 10.7753ZM11.9693 11.4237C11.2986 11.4237 10.7568 11.9708 10.7568 12.6618C10.7568 13.3528 11.2986 13.8999 11.9693 13.8999C12.64 13.8999 13.1818 13.3528 13.1818 12.6618C13.1818 11.9707 12.64 11.4237 11.9693 11.4237ZM11.88 11.8595C12.3252 11.8595 12.6331 12.261 12.6331 12.6834C12.6331 13.1058 12.3252 13.5072 11.88 13.5072C11.4347 13.5072 11.1268 13.1058 11.1268 12.6834C11.1268 12.261 11.4347 11.8595 11.8799 11.8595H11.88ZM5.49805 12.0599L4.95012 12.6533C4.86557 12.7639 4.77096 12.8664 4.6675 12.9595L4.5118 13.1281C4.88773 13.3544 5.20875 13.6651 5.44953 14.0338C5.71184 13.4588 6.13711 12.975 6.66488 12.6436C6.22996 12.5407 5.83258 12.3379 5.49809 12.0598L5.49805 12.0599ZM8.32266 12.8686C6.96211 12.8686 5.86113 13.984 5.86113 15.3761C5.86113 16.7683 6.96215 17.8837 8.3227 17.8837C9.68324 17.8837 10.7843 16.7683 10.7843 15.3761C10.7843 13.984 9.6832 12.8686 8.3227 12.8686L8.32266 12.8686ZM2.68281 13.4575C1.65789 13.6347 0.878906 14.538 0.878906 15.639C0.878906 16.1871 1.07227 16.686 1.39242 17.071C1.18668 16.7618 1.07708 16.3985 1.07742 16.0271V16.0269C1.07723 14.9992 1.90508 14.1522 2.92469 14.1522C3.94441 14.1522 4.77227 14.9992 4.77203 16.027C4.77223 16.8439 4.24914 17.5462 3.52258 17.8002C4.40625 17.6023 5.08703 16.8598 5.20523 15.9288C5.17382 15.7463 5.15805 15.5614 5.15809 15.3762C5.15811 15.2954 5.16105 15.2151 5.16691 15.1356C4.98332 14.3246 4.36563 13.6892 3.57668 13.4907C3.45695 13.5113 3.3341 13.5226 3.20863 13.5226C3.02738 13.5226 2.85137 13.4997 2.68277 13.4576L2.68281 13.4575ZM8.17031 13.4826C9.2323 13.4826 10.0922 14.3694 10.0922 15.4437C10.0922 16.518 9.23219 17.4048 8.17031 17.4048C7.10832 17.4048 6.24844 16.518 6.24844 15.4437C6.24844 14.3695 7.10848 13.4827 8.17031 13.4827V13.4826ZM8.17031 14.1857C7.49805 14.1857 6.95156 14.7402 6.95156 15.4437C6.95156 16.1473 7.49777 16.7017 8.17031 16.7017C8.84266 16.7017 9.38906 16.1473 9.38906 15.4437C9.38906 14.7402 8.84289 14.1858 8.17031 14.1858V14.1857ZM11.3678 14.504C11.4177 14.6818 11.4522 14.8636 11.471 15.0474C11.6145 14.8743 11.7838 14.7243 11.973 14.6029L11.9694 14.603C11.7592 14.603 11.5571 14.5678 11.3678 14.5039V14.504ZM2.92484 14.8552C2.29203 14.8552 1.78051 15.3723 1.7807 16.0269V16.0271C1.78051 16.6816 2.29203 17.1987 2.92484 17.1987C3.55754 17.1987 4.06918 16.6816 4.06898 16.0271V16.0269C4.06918 15.3724 3.55754 14.8553 2.92484 14.8553V14.8552ZM8.14773 14.8652C8.49801 14.8652 8.73211 15.1756 8.73211 15.4884C8.73211 15.8013 8.49801 16.1115 8.14773 16.1115C7.7975 16.1115 7.56336 15.8012 7.56336 15.4884C7.56336 15.1756 7.7975 14.8652 8.14773 14.8652ZM13.1166 14.9693C12.317 14.9693 11.6708 15.6225 11.6708 16.4445C11.6708 17.2665 12.317 17.9198 13.1166 17.9198C13.9162 17.9198 14.5624 17.2665 14.5624 16.4445C14.5624 15.6225 13.9162 14.9693 13.1166 14.9693ZM2.80598 15.4996C3.15617 15.4996 3.39027 15.8098 3.39027 16.1227C3.39027 16.4355 3.15621 16.7459 2.80598 16.7459C2.45574 16.7459 2.2216 16.4355 2.2216 16.1227C2.2216 15.8098 2.45574 15.4995 2.80598 15.4995V15.4996ZM13.2717 15.5551C13.847 15.5551 14.314 16.0359 14.314 16.6113C14.314 17.1867 13.8469 17.6674 13.2717 17.6674C12.6964 17.6674 12.2294 17.1866 12.2294 16.6113C12.2294 16.0359 12.6964 15.5551 13.2717 15.5551L13.2717 15.5551ZM13.2717 16.2583C13.0841 16.2583 12.9326 16.4085 12.9326 16.6113C12.9326 16.8141 13.084 16.9643 13.2717 16.9643C13.4592 16.9643 13.6109 16.8141 13.6109 16.6113C13.6109 16.4084 13.4593 16.2582 13.2717 16.2582L13.2717 16.2583Z" fill="black"/>
</svg>
