<svg width="20" height="20" viewBox="0 0 20 20" fill="none" xmlns="http://www.w3.org/2000/svg">
<g clip-path="url(#clip0_164_2203)">
<path d="M9.99986 4.46417C9.99986 3.75 9.79486 3.34083 9.5807 2.99167C9.29231 2.52598 8.92419 2.11471 8.4932 1.77667C8.15986 1.51167 7.76486 1.25 7.49986 1.25M9.99986 4.46417C9.99986 3.75 10.2049 3.34083 10.419 2.99167C10.7074 2.52598 11.0755 2.11471 11.5065 1.77667C11.8399 1.51167 12.2349 1.25 12.4999 1.25M9.99986 4.46417V7.64333M9.99986 7.64333C10.5651 8.20865 11.2684 8.61506 12.0407 8.82167M9.99986 7.64333C9.4344 8.20833 8.7303 8.61553 7.9582 8.8225M9.99986 15.535C9.99986 16.25 10.2049 16.6592 10.419 17.0083C10.7049 17.475 11.079 17.8825 11.5065 18.2233C11.8399 18.4883 12.2349 18.75 12.4999 18.75M9.99986 15.535C9.99986 16.2492 9.79486 16.6592 9.5807 17.0083C9.29231 17.474 8.92419 17.8853 8.4932 18.2233C8.15986 18.4883 7.76486 18.75 7.49986 18.75M9.99986 15.535V12.3567M9.99986 12.3567C9.43454 11.7917 8.73036 11.3855 7.9582 11.1792C8.16477 10.4072 8.16477 9.59447 7.9582 8.8225M9.99986 12.3567C10.5653 11.7917 11.2694 11.3853 12.0415 11.1783C11.835 10.4064 11.8341 9.59364 12.0407 8.82167M14.794 7.23167C15.4124 6.875 15.664 6.4925 15.8599 6.1325C16.1215 5.65167 16.2865 5.12417 16.3682 4.5825C16.4315 4.16333 16.4599 3.68917 16.3274 3.46M14.794 7.23167C15.4124 6.87417 15.869 6.84917 16.279 6.85917C16.8265 6.87605 17.3667 6.98916 17.8749 7.19333C18.2707 7.34917 18.6949 7.56 18.8274 7.79M14.794 7.23167L12.0407 8.82167M3.67236 16.5392C3.53986 16.31 3.56903 15.8358 3.63153 15.4167C3.70866 14.8742 3.88073 14.3495 4.13986 13.8667C4.3357 13.5067 4.58736 13.1242 5.2057 12.7667C4.58736 13.1242 4.1307 13.15 3.7207 13.14C3.17326 13.1231 2.63308 13.01 2.12486 12.8058C1.72903 12.65 1.30486 12.4392 1.17236 12.2092M5.2057 12.7675L7.9582 11.1775M18.8274 12.2092C18.6949 12.4392 18.2707 12.65 17.8749 12.8058C17.3667 13.01 16.8265 13.1231 16.279 13.14C15.869 13.15 15.4124 13.1242 14.794 12.7667L12.0407 11.1775M14.794 12.7675C15.4124 13.1242 15.664 13.5067 15.8599 13.8667C16.1215 14.3475 16.2865 14.875 16.3682 15.4158C16.4315 15.8358 16.4599 16.31 16.3274 16.5392M5.2057 7.23333C4.58736 6.875 4.1307 6.85 3.7207 6.85917C3.17321 6.87631 2.63303 6.98971 2.12486 7.19417C1.72903 7.35 1.30486 7.56083 1.17236 7.79083M3.67236 3.46083C3.53986 3.69 3.56903 4.16333 3.63153 4.58333C3.70866 5.12584 3.88073 5.65052 4.13986 6.13333C4.3357 6.49333 4.58736 6.87583 5.2057 7.2325L7.9582 8.8225" stroke="black"/>
</g>
<defs>
<clipPath id="clip0_164_2203">
<rect width="20" height="20" fill="white"/>
</clipPath>
</defs>
</svg>
