<svg width="20" height="20" viewBox="0 0 20 20" fill="none" xmlns="http://www.w3.org/2000/svg">
<path fill-rule="evenodd" clip-rule="evenodd" d="M1.33325 3.33333C1.33325 2.44928 1.68444 1.60143 2.30956 0.976311C2.93468 0.351189 3.78253 0 4.66659 0L6.66659 0V6.66667H7.99992V0H9.33325V4H10.6666V0H15.3333C16.2173 0 17.0652 0.351189 17.6903 0.976311C18.3154 1.60143 18.6666 2.44928 18.6666 3.33333V12.6667C18.6666 13.1044 18.5804 13.5379 18.4129 13.9423C18.2453 14.3467 17.9998 14.7142 17.6903 15.0237C17.3807 15.3332 17.0133 15.5788 16.6089 15.7463C16.2044 15.9138 15.771 16 15.3333 16H11.9999V18C11.9999 18.5304 11.7892 19.0391 11.4141 19.4142C11.0391 19.7893 10.5304 20 9.99992 20C9.46949 20 8.96078 19.7893 8.5857 19.4142C8.21063 19.0391 7.99992 18.5304 7.99992 18V16H4.66659C3.78253 16 2.93468 15.6488 2.30956 15.0237C1.68444 14.3986 1.33325 13.5507 1.33325 12.6667V3.33333ZM2.66659 10.6667V12.6667C2.66659 13.1971 2.8773 13.7058 3.25237 14.0809C3.62744 14.456 4.13615 14.6667 4.66659 14.6667H9.33325V18C9.33325 18.1768 9.40349 18.3464 9.52851 18.4714C9.65354 18.5964 9.82311 18.6667 9.99992 18.6667C10.1767 18.6667 10.3463 18.5964 10.4713 18.4714C10.5963 18.3464 10.6666 18.1768 10.6666 18V14.6667H15.3333C15.8637 14.6667 16.3724 14.456 16.7475 14.0809C17.1225 13.7058 17.3333 13.1971 17.3333 12.6667V10.6667H2.66659Z" fill="black"/>
</svg>
