<svg width="20" height="20" viewBox="0 0 20 20" fill="none" xmlns="http://www.w3.org/2000/svg">
<path d="M16.0667 4.10841L14.3 2.34175C13.65 1.69175 12.5917 1.69175 11.9417 2.34175L9.58338 4.70008L11.35 6.46675L13.1167 4.70008L16.0667 7.65008C16.5354 7.17991 16.7986 6.54312 16.7986 5.87925C16.7986 5.21538 16.5354 4.57859 16.0667 4.10841ZM4.57505 11.4751C5.06672 11.9667 5.85838 11.9667 6.34172 11.4751L8.40005 9.41675L6.63338 7.64175L4.57505 9.70008C4.08338 10.1917 4.08338 10.9834 4.57505 11.4751Z" fill="black"/>
<path d="M12.5333 6.46674L11.9416 7.05841L11.3499 7.65007L8.69993 5.00007C8.20827 4.50007 7.4166 4.50007 6.93327 4.99174C6.81636 5.10723 6.72354 5.24478 6.66019 5.39641C6.59684 5.54804 6.56422 5.71074 6.56422 5.87507C6.56422 6.03941 6.59684 6.2021 6.66019 6.35374C6.72354 6.50537 6.81636 6.64292 6.93327 6.7584L9.58327 9.40841L8.9916 10.0001L3.6916 15.3001C3.0416 15.9501 3.0416 17.0084 3.6916 17.6584C4.3416 18.3084 5.39994 18.3084 6.04994 17.6584L13.7083 10.0001C13.7854 10.0772 13.877 10.1384 13.9778 10.1802C14.0786 10.2219 14.1867 10.2434 14.2958 10.2434C14.4049 10.2434 14.5129 10.2219 14.6137 10.1802C14.7145 10.1384 14.8061 10.0772 14.8833 10.0001C14.9604 9.92292 15.0216 9.83133 15.0634 9.73053C15.1051 9.62972 15.1266 9.52168 15.1266 9.41257C15.1266 9.30346 15.1051 9.19542 15.0634 9.09462C15.0216 8.99382 14.9604 8.90222 14.8833 8.82507L12.5333 6.46674Z" fill="black"/>
</svg>
