<svg width="19" height="19" viewBox="0 0 19 19" fill="none" xmlns="http://www.w3.org/2000/svg">
<g clip-path="url(#clip0_164_3547)">
<path d="M1.409 0.5L0.5 1.409L2.10131 4.17823L3.13977 4.02592L9.47854 10.3654L8.93785 10.8846C8.66092 11.1615 8.66092 11.5811 8.93785 11.858L9.21892 12.1398C9.49585 12.4167 9.91954 12.4167 10.1272 12.1398L10.9497 12.9615C10.8805 13.3769 10.9497 13.8705 11.2958 14.2167L15.0385 17.9378C15.8 18.6994 17.0462 18.6994 17.8077 17.9378C18.7077 17.1071 18.6994 15.8651 17.9378 15.1035L14.2167 11.3602C13.8705 11.0141 13.3769 10.8756 12.9615 11.0141L12.0525 10.1923C12.2602 9.91539 12.2602 9.49169 12.0525 9.28331L11.7929 9.02438C11.73 8.95875 11.6544 8.90653 11.5708 8.87086C11.4872 8.83518 11.3972 8.81679 11.3062 8.81679C11.2153 8.81679 11.1253 8.83518 11.0417 8.87086C10.958 8.90653 10.8825 8.95875 10.8195 9.02438L10.3654 9.47854L4.02662 3.13977L4.17754 2.10131L1.409 0.5ZM14.909 0.521462C13.5431 0.407923 11.732 1.31346 10.8846 2.10062C9.842 3.14323 10.0123 4.50638 10.841 5.82246L9.37054 7.29362L10.409 8.46154C10.9628 7.97692 11.7798 7.97692 12.3336 8.46154L12.6154 8.74262L12.6805 8.80769L13.2862 8.20192C14.5379 8.93785 15.8408 9.04377 16.8343 8.05031C17.8035 7.15031 18.8545 4.93077 18.3698 3.61538L16.4231 5.62723C16.1462 5.90415 15.7266 5.90415 15.4497 5.62723L13.4372 3.61538C13.3715 3.55245 13.3193 3.47689 13.2836 3.39325C13.2479 3.30961 13.2296 3.21962 13.2296 3.12869C13.2296 3.03776 13.2479 2.94777 13.2836 2.86413C13.3193 2.7805 13.3715 2.70494 13.4372 2.642L15.4504 0.630154C15.2773 0.569231 15.1042 0.538077 14.909 0.521462ZM7.29361 9.15385L4.78331 11.6635C4.51352 11.6038 4.23785 11.5747 3.96154 11.5769C2.02308 11.5769 0.5 13.1 0.5 15.0385C0.5 16.9769 2.02308 18.5 3.96154 18.5C5.9 18.5 7.42308 16.9769 7.42308 15.0385C7.42308 14.6833 7.367 14.342 7.27146 14.0215L8.74261 12.5503L8.52662 12.2692C7.97277 11.7154 7.97692 10.8763 8.46154 10.3218L7.29361 9.15385ZM12.659 12.3128C12.7455 12.3128 12.8272 12.3295 12.8965 12.3994L16.9859 16.4882C17.1244 16.6266 17.1244 16.8468 16.9859 16.9852C16.8475 17.1237 16.6259 17.1237 16.4875 16.9852L12.3994 12.8965C12.2609 12.758 12.2609 12.5378 12.3994 12.3994C12.4686 12.3302 12.5725 12.3128 12.659 12.3128ZM4.43785 13.2419L5.75738 14.5622L5.28108 16.3573L3.48592 16.8336L2.16569 15.5134L2.642 13.7182L4.43785 13.2419Z" fill="black"/>
</g>
<defs>
<clipPath id="clip0_164_3547">
<rect width="18" height="18" fill="white" transform="translate(0.5 0.5)"/>
</clipPath>
</defs>
</svg>
